<svg xmlns="http://www.w3.org/2000/svg" viewBox="1322.94 1263.88 252 252">
  <g fill="#8b0000">
    <path d="M 1352.17 1402.54 C 1350.26 1401.77 1347.94 1396.70 1347.94 1393.30 C 1347.94 1386.58 1352.56 1382.17 1357.33 1384.34 C 1360.31 1385.70 1361.94 1389.16 1361.94 1394.12 C 1361.94 1400.58 1357.28 1404.60 1352.17 1402.54 Z M 1379.17 1429.54 C 1378.47 1429.26 1377.23 1427.74 1376.42 1426.17 C 1375.21 1423.83 1374.94 1417.78 1374.94 1392.89 C 1374.94 1363.64 1375.02 1362.38 1377.01 1359.84 C 1378.39 1358.10 1380.05 1357.21 1381.94 1357.21 C 1383.83 1357.21 1385.49 1358.10 1386.87 1359.84 C 1388.86 1362.38 1388.94 1363.64 1388.94 1392.89 C 1388.94 1417.63 1388.67 1423.83 1387.48 1426.14 C 1385.59 1429.79 1382.72 1430.96 1379.17 1429.54 Z M 1406.30 1416.04 C 1405.13 1415.47 1403.67 1413.90 1403.05 1412.56 C 1401.68 1409.53 1401.54 1378.38 1402.89 1374.83 C 1404.97 1369.36 1411.73 1368.98 1414.42 1374.17 C 1415.61 1376.46 1415.94 1380.88 1415.94 1394.23 L 1415.57 1411.48 L 1414.06 1414.96 C 1410.87 1418.15 1409.46 1417.57 1406.30 1416.04 Z M 1430.79 1448.64 C 1429.52 1447.57 1429.31 1447.09 1428.94 1444.55 L 1428.94 1393.25 C 1428.94 1342.54 1428.99 1341.16 1430.94 1339.21 C 1433.44 1336.71 1438.10 1336.62 1440.29 1339.04 C 1441.78 1340.69 1441.94 1345.93 1441.94 1393.54 C 1441.94 1444.87 1441.89 1446.26 1439.94 1448.21 C 1437.27 1450.88 1433.76 1451.62 1430.79 1448.64 Z M 1460.33 1482.95 C 1455.80 1480.57 1455.94 1483.46 1455.94 1390.60 C 1455.94 1342.07 1456.22 1301.64 1456.56 1300.75 C 1458.27 1296.31 1465.62 1295.88 1467.88 1300.09 C 1468.61 1301.45 1468.94 1329.82 1468.94 1390.42 C 1468.94 1466.51 1468.74 1479.05 1467.47 1480.86 C 1465.66 1483.44 1462.84 1484.27 1460.33 1482.95 Z M 1484.94 1448.21 C 1482.99 1446.26 1482.94 1444.87 1482.94 1394.29 C 1482.94 1365.73 1483.22 1341.64 1483.56 1340.75 C 1484.56 1338.14 1489.16 1336.20 1491.47 1337.42 C 1496.01 1339.81 1495.94 1338.90 1495.93 1393.65 C 1495.92 1422.28 1495.19 1446.59 1494.78 1447.20 C 1493.79 1448.69 1491.86 1450.34 1489.94 1450.34 C 1489.08 1450.34 1486.04 1449.31 1484.94 1448.21 Z M 1511.94 1428.21 C 1510.37 1426.00 1509.94 1424.87 1509.94 1393.36 C 1509.94 1362.81 1510.55 1360.79 1512.25 1359.25 C 1514.73 1357.01 1518.16 1356.73 1520.59 1359.16 C 1522.51 1361.08 1522.94 1362.54 1522.94 1393.25 L 1522.94 1425.39 L 1522.08 1428.31 L 1521.01 1429.49 C 1518.99 1431.34 1514.18 1431.36 1511.94 1428.21 Z M 1538.48 1401.25 C 1535.93 1398.43 1535.27 1390.88 1537.31 1387.76 C 1542.22 1380.27 1549.94 1383.97 1549.94 1393.82 C 1549.94 1397.44 1548.48 1401.15 1546.54 1402.44 C 1544.46 1403.83 1540.25 1403.21 1538.48 1401.25 Z"/>
  </g>
</svg>