<?xml version="1.0" encoding="UTF-8" standalone="no"?>
<!-- Created with Inkscape (http://www.inkscape.org/) -->

<svg
   xmlns:dc="http://purl.org/dc/elements/1.1/"
   xmlns:cc="http://creativecommons.org/ns#"
   xmlns:rdf="http://www.w3.org/1999/02/22-rdf-syntax-ns#"
   xmlns:svg="http://www.w3.org/2000/svg"
   xmlns="http://www.w3.org/2000/svg"
   xmlns:sodipodi="http://sodipodi.sourceforge.net/DTD/sodipodi-0.dtd"
   xmlns:inkscape="http://www.inkscape.org/namespaces/inkscape"
   version="1.1"
   id="svg3769"
   width="2220"
   height="1500"
   viewBox="0 0 2220 1500"
   sodipodi:docname="znr9.svg"
   inkscape:version="0.92.4 (5da689c313, 2019-01-14)">
  <metadata
     id="metadata3775">
    <rdf:RDF>
      <cc:Work
         rdf:about="">
        <dc:format>image/svg+xml</dc:format>
        <dc:type
           rdf:resource="http://purl.org/dc/dcmitype/StillImage" />
        <dc:title />
      </cc:Work>
    </rdf:RDF>
  </metadata>
  <defs
     id="defs3773" />
  <sodipodi:namedview
     pagecolor="#ffffff"
     bordercolor="#666666"
     borderopacity="1"
     objecttolerance="10"
     gridtolerance="10"
     guidetolerance="10"
     inkscape:pageopacity="0"
     inkscape:pageshadow="2"
     inkscape:window-width="2435"
     inkscape:window-height="1292"
     id="namedview3771"
     showgrid="false"
     inkscape:zoom="0.5"
     inkscape:cx="1454.5561"
     inkscape:cy="579.43392"
     inkscape:window-x="32"
     inkscape:window-y="11"
     inkscape:window-maximized="0"
     inkscape:current-layer="svg3769" />
  <path
     style="fill:#666666"
     d="m 1460.3324,1482.9524 c -4.5294,-2.3785 -4.392,0.5109 -4.392,-92.3542 0,-48.5249 0.2795,-88.9556 0.6212,-89.8459 1.7037,-4.4398 9.0621,-4.8736 11.3134,-0.6669 0.7308,1.3654 1.0654,29.7368 1.0654,90.3339 0,76.0914 -0.2038,88.6341 -1.4694,90.4411 -1.8082,2.5815 -4.631,3.4088 -7.1386,2.092 z m 178.608,-20.3276 c -13.4311,-3.5434 -23.7266,-11.2412 -28.1231,-21.0271 -3.2668,-7.2713 -5.1193,-16.2879 -4.3713,-21.2761 1.7276,-11.5206 7.0111,-20.2903 15.7334,-26.1149 11.0224,-7.3605 21.2757,-9.5296 56.761,-12.0083 8.525,-0.5955 16.0625,-1.2729 16.75,-1.5054 1.6225,-0.5487 1.6852,-13.8717 0.095,-20.1869 -1.5925,-6.3241 -7.6617,-12.4054 -15.1325,-15.1626 -4.3576,-1.6083 -8.0636,-2.1358 -15,-2.1352 -8.0914,7e-4 -9.9426,0.351 -15.2125,2.8784 -6.769,3.2465 -11.4372,7.736 -14.163,13.6208 l -1.8527,4 h -9.9922 -9.9921 l -0.3176,-3.307 c -0.4284,-4.4605 4.5133,-14.8227 9.8087,-20.5675 5.4191,-5.879 11.9584,-10.0074 21.1106,-13.3276 6.6786,-2.4228 8.7602,-2.687 21.3983,-2.7163 14.951,-0.035 19.3786,0.8802 30,6.1986 10.2917,5.1532 16.2783,11.7612 20.5834,22.7198 2.3478,5.9763 2.3584,6.2006 2.7099,56.8095 0.2665,38.3846 0.061,51.1618 -0.8427,52.25 -1.537,1.852 -17.9394,2.0517 -19.7506,0.2405 -0.7714,-0.7714 -1.2,-4.7284 -1.2,-11.0778 v -9.8779 l -6.75,6.947 c -7.2457,7.4571 -12.7632,10.7516 -23.6053,14.0948 -8.1274,2.5061 -20.3032,2.7319 -28.6447,0.5312 z m 35.2799,-21.5034 c 10.2381,-3.9223 18.6164,-13.0937 21.3547,-23.3761 1.8539,-6.9611 1.802,-16.433 -0.094,-17.1606 -0.8027,-0.308 -10.3652,-0.099 -21.25,0.464 -23.5628,1.219 -31.7935,3.3145 -38.4145,9.7797 -6.5297,6.3761 -7.474,16.1385 -2.2351,23.1068 2.8635,3.8088 10.1834,8.321 15.2562,9.4045 6.1635,1.3164 19.1094,0.185 25.3826,-2.2183 z m 105.1752,20.376 c -11.9661,-4.1497 -19.2387,-10.3368 -24.4375,-20.7899 -5.9458,-11.9552 -6.0624,-13.3087 -5.7772,-67.0619 l 0.2596,-48.9381 h 10.5 10.5 l 0.5,48.5 0.5,48.5 2.5959,5.5 c 5.2328,11.0867 13.1318,16.0659 26.6541,16.8018 16.7445,0.9113 27.9557,-5.3592 34.9777,-19.5631 l 3.7723,-7.6307 0.5,-46.054 0.5,-46.054 h 10.5 10.5 v 69 69 l -8.8489,0.2904 c -5.6643,0.1859 -9.3531,-0.1281 -10.25,-0.8725 -1.0192,-0.8458 -1.4011,-3.7188 -1.4011,-10.5403 0,-5.1577 -0.3539,-9.3776 -0.7865,-9.3776 -0.4326,0 -2.4681,2.2524 -4.5234,5.0053 -7.8569,10.524 -20.0791,15.9968 -37.1901,16.6528 -10.0591,0.3856 -11.6881,0.183 -19.0449,-2.3682 z m 156.0449,2.0305 c -31.2386,-6.9915 -49.4302,-32.6872 -49.4302,-69.8204 0,-23.6815 7.9245,-44.2344 21.8928,-56.7811 21.3251,-19.1546 58.5185,-17.7727 75.7265,2.8136 2.0539,2.4571 4.0891,4.4675 4.5227,4.4675 0.4335,0 0.7951,-16.3125 0.8035,-36.25 0.01,-19.9375 0.3827,-36.8291 0.8318,-37.5368 0.6004,-0.9464 3.5733,-1.211 11.2347,-1 l 10.4182,0.2868 0.2551,95.9379 c 0.2022,76.0893 0,96.1027 -1,96.7346 -2.0368,1.2931 -18.1973,0.9853 -19.5551,-0.3725 -0.7613,-0.7613 -1.2,-4.6 -1.2,-10.5 0,-5.115 -0.2581,-9.3 -0.5737,-9.3 -0.3155,0 -2.903,2.5533 -5.75,5.674 -6.6014,7.2362 -12.2143,10.7761 -21.9779,13.861 -7.4537,2.3551 -19.8718,3.2013 -26.1984,1.7854 z m 29.3226,-23.868 c 11.9237,-5.9652 19.711,-17.2845 22.7236,-33.0302 1.844,-9.6377 1.8364,-16.2465 -0.03,-26.0008 -3.8309,-20.0221 -15.6974,-33.3969 -32.283,-36.3861 -19.8549,-3.5783 -37.9091,9.4882 -43.6334,31.5793 -2.7118,10.4651 -3.0388,19.2596 -1.1136,29.9518 4.3488,24.1528 17.8776,37.2432 38.6293,37.3777 7.9259,0.051 9.1834,-0.2281 15.707,-3.4917 z m 172.2119,21.9979 c -4.6561,-1.4081 -10.6245,-3.7351 -13.2631,-5.1712 -6.5374,-3.5581 -15.8483,-12.1655 -19.7689,-18.2752 -10.7622,-16.7715 -14.6541,-41.526 -10.0424,-63.876 6.9909,-33.8805 32.1667,-53.0198 66.7953,-50.7795 16.0066,1.0355 30.1937,7.266 40.1206,17.6196 17.5316,18.285 23.3444,51.5892 14.062,80.5669 -6.2197,19.4166 -19.1779,32.7122 -38.2408,39.2364 -5.644,1.9317 -9.7869,2.547 -19.1972,2.8511 -10.6742,0.3451 -12.9353,0.1051 -20.4655,-2.1721 z m 35.2674,-21.2727 c 6.3035,-2.8237 15.1788,-11.8015 18.2082,-18.4187 5.7031,-12.4572 7.2062,-30.8933 3.6942,-45.3106 -2.3714,-9.7349 -4.6905,-14.464 -10.1045,-20.6049 -14.3135,-16.2354 -41.1853,-16.5891 -56.2363,-0.7402 -5.6697,5.9703 -8.5867,11.9189 -10.9827,22.3968 -6.3595,27.81 3.5812,54.636 23.2979,62.8716 5.7322,2.3944 7.2999,2.6086 16.8213,2.2987 8.0528,-0.2621 11.6192,-0.843 15.3019,-2.4927 z m -126.0589,22.013 c -0.9933,-0.6458 -1.2031,-15.1745 -1,-69.2539 l 0.257,-68.4367 h 10.5 10.5 v 69 69 l -9.5,0.2539 c -5.225,0.1397 -10.0656,-0.1138 -10.757,-0.5633 z m -615.3979,-13.7545 c -1.2648,-1.0743 -1.4736,-1.5511 -1.8451,-4.0967 v -51.2939 c 0,-50.7122 0.051,-52.0967 2,-54.0455 2.4987,-2.4987 7.1614,-2.5841 9.345,-0.1713 1.4959,1.653 1.655,6.8922 1.655,54.5 0,51.338 -0.051,52.7219 -2,54.6713 -2.6753,2.6753 -6.1789,3.412 -9.1549,0.4361 z m 54.1549,-0.4361 c -1.9486,-1.9486 -2,-3.3333 -2,-53.9182 0,-28.555 0.2795,-52.6467 0.6212,-53.537 1.0028,-2.6134 5.5983,-4.5497 7.9097,-3.3328 4.5418,2.3911 4.4699,1.483 4.4538,56.2291 -0.01,28.6324 -0.7364,52.9445 -1.1405,53.5497 -0.9933,1.4876 -2.9219,3.1394 -4.8468,3.1394 -0.8611,0 -3.8974,-1.0302 -4.9974,-2.1302 z m -105.771,-18.6693 c -0.6991,-0.2813 -1.9366,-1.7984 -2.75,-3.3714 -1.2102,-2.3402 -1.479,-8.3876 -1.479,-33.2748 0,-29.2556 0.079,-30.5152 2.0726,-33.0496 1.3743,-1.7472 3.0343,-2.6349 4.9274,-2.6349 1.8931,0 3.5531,0.8877 4.9274,2.6349 1.9936,2.5344 2.0726,3.794 2.0726,33.0496 0,24.7378 -0.2731,30.9429 -1.463,33.244 -1.8886,3.6522 -4.7621,4.8289 -8.308,3.4022 z m 132.771,-1.3307 c -1.5724,-2.2116 -2,-3.3333 -2,-34.845 0,-30.5497 0.605,-32.5702 2.3059,-34.1095 2.4806,-2.2449 5.9174,-2.5185 8.347,-0.089 1.9168,1.9168 2.3471,3.3767 2.3471,34.0889 v 32.1322 l -0.8614,2.9281 -1.0725,1.1751 c -2.0215,1.8479 -6.8246,1.8716 -9.0661,-1.2809 z m -105.6359,-12.1696 c -1.1748,-0.5688 -2.6373,-2.1345 -3.25,-3.4794 -1.3782,-3.0248 -1.5119,-34.1744 -0.162,-37.7251 2.0798,-5.4703 8.8423,-5.858 11.5297,-0.6611 1.1842,2.29 1.5182,6.7035 1.5182,20.0625 l -0.3681,17.2492 -1.512,3.4753 c -3.1873,3.1874 -4.5968,2.6082 -7.7558,1.0786 z m -54.1351,-13.4997 c -1.9083,-0.7678 -4.229,-5.8351 -4.229,-9.234 0,-6.7287 4.6189,-11.1387 9.3897,-8.965 2.9788,1.3572 4.6103,4.8184 4.6103,9.7805 0,6.4645 -4.6564,10.4764 -9.771,8.4185 z m 186.3077,-1.2901 c -2.5519,-2.8198 -3.2041,-10.373 -1.1645,-13.4858 4.9094,-7.4927 12.6278,-3.7899 12.6278,6.058 0,3.6206 -1.4619,7.328 -3.3997,8.6219 -2.078,1.3875 -6.292,0.7635 -8.0636,-1.1941 z m 513.4633,-99.7621 c -5.8009,-2.1798 -10.2,-8.1222 -10.2,-13.7785 0,-14.1106 20.0171,-18.7723 26.1558,-6.0913 2.5172,5.1998 2.525,6.9351 0.056,12.3751 -2.6547,5.849 -10.5529,9.5459 -16.0118,7.4947 z M 0.30306721,1184.7075 c -0.92249997,-2.4104 0.1901,-104.9931 1.13729999,-104.869 0.55,0.072 141.9073028,-195.90295 314.1272028,-435.50005 267.1254,-371.632 313.5125,-435.6775 315.75,-435.9474 l 2.6228,-0.3164 v 109.8329 109.8329 l -223,311.716 c -122.65,171.4438 -223,312.34645 -223,313.11695 0,0.7704 1.0125,1.6722 2.25,2.0038 1.2375,0.3317 101.5875,0.6091 223,0.6166 l 220.75,0.014 v 64.9969 64.9969 l -316.6273,0.2531 c -210.3966,0.1682 -316.75570279,-0.082 -317.01000279,-0.7469 z M 652.94037,620.19965 V 55.19185 l 60.0096,0.2578 60.0097,0.2578 300.46643,430.5 300.4665,430.5 0.024,116.31645 0.024,116.3164 -2.6554,-0.3164 c -2.2986,-0.2739 -42.237,-56.8395 -297.2856,-421.05205 -162.04663,-231.4046 -295.20693,-421.3046 -295.91193,-422 -1.035,-1.021 -1.5575,-0.8908 -2.7144,0.6767 -1.2386,1.678 -1.4329,61.3658 -1.4329,440.25 v 438.30895 h -60.5 -60.5 z M 2050.7417,1182.7075 1930.5911,960.81935 c -94.3733,-174.2837 -120.6583,-222.0753 -122.5167,-222.7607 -3.0189,-1.1134 -270.6801,-0.6387 -271.8008,0.4821 -0.4582,0.4583 -0.9487,100.6958 -1.0898,222.75 l -0.2566,221.91675 h -70.9934 -70.9934 V 619.17405 55.14055 l 237.25,0.3198 237.25,0.3199 20,2.6554 c 62.8363,8.3427 115.5233,27.0938 160.5,57.1213 34.8659,23.2773 67.0471,56.7779 89.107,92.7606 21.9564,35.8137 36.7926,78.6097 43.4692,125.3899 2.5283,17.715 2.7189,21.4685 2.8177,55.5 0.1128,38.8228 -0.5703,49.0154 -5.0269,75 -7.6388,44.5383 -23.9656,87.0997 -47.1662,122.9547 -36.6716,56.6737 -92.755,100.9331 -156.2008,123.2691 -6.325,2.2268 -12.0744,4.5778 -12.7764,5.2245 -1.0161,0.9362 24.8117,48.0299 126.6455,230.922 36.3119,74.12945 101.2195,170.01555 132.1557,237.33215 -64.0022,-1.0095 -102.8489,-0.9963 -170.2235,-1.2024 z M 1847.4404,607.84935 c 52.655,-6.6028 90.0965,-21.482 121.6236,-48.333 43.3248,-36.8989 65.8904,-92.6756 65.8676,-162.8089 -0.017,-53.8625 -13.5562,-97.3212 -41.8139,-134.2203 -6.0437,-7.892 -21.5623,-23.5244 -30.6773,-30.9024 -24.2249,-19.6084 -61.1047,-35.6748 -97,-42.2571 -30.8343,-5.6543 -27.9619,-5.567 -184,-5.5947 l -144,-0.025 -0.2564,212 c -0.141,116.6 -0.031,212.5939 0.2454,213.3198 0.4135,1.0875 26.5898,1.2435 148.7564,0.886 129.2875,-0.3782 149.9178,-0.6422 161.2546,-2.0638 z M 21.704467,119.62385 c -0.1453,-36.621 -0.076,-66.771 0.1526,-67 0.5448,-0.5445 612.621803,-0.5445 613.166703,0 0.2291,0.229 0.2978,30.379 0.1526,67 l -0.264,66.5836 H 328.44037 21.968467 Z M 682.69037,53.45805 c 16.6375,-0.154 43.8625,-0.154 60.5,0 16.6375,0.1539 3.025,0.2798 -30.25,0.2798 -33.275,0 -46.8875,-0.1259 -30.25,-0.2798 z m 823.50003,-6e-4 c 63.1125,-0.1421 166.3875,-0.1421 229.5,0 63.1125,0.1422 11.475,0.2585 -114.75,0.2585 -126.225,0 -177.8625,-0.1163 -114.75,-0.2585 z"
     id="path3819"
     inkscape:connector-curvature="0"
     sodipodi:nodetypes="ssccscscccccsccsccccccscccsccsscccccccccccccccccccccccccccccccccssccccsccsccccccssscccccccccccccccsccsccccccccccsccscccccccccsccsccssccccssccscscscccscsscccsccccsccccccscccscccccccccsccccsscccccscccscccccccsccsccccscccsccccccccscccccccsccccccccccscccccccsccccccscccscc" />
</svg>
