<?xml version="1.0" encoding="UTF-8" standalone="no"?>
<!-- Created with Inkscape (http://www.inkscape.org/) -->

<svg
   version="1.1"
   id="svg2"
   width="556.21777"
   height="179.41885"
   viewBox="0 0 556.21777 179.41885"
   sodipodi:docname="MDR.svg"
   inkscape:version="1.2.2 (732a01da63, 2022-12-09)"
   xmlns:inkscape="http://www.inkscape.org/namespaces/inkscape"
   xmlns:sodipodi="http://sodipodi.sourceforge.net/DTD/sodipodi-0.dtd"
   xmlns="http://www.w3.org/2000/svg"
   xmlns:svg="http://www.w3.org/2000/svg">
  <defs
     id="defs6">
    <clipPath
       clipPathUnits="userSpaceOnUse"
       id="clipPath16">
      <path
         d="M 0,0 H 595.276 V 841.89 H 0 Z"
         id="path14" />
    </clipPath>
  </defs>
  <sodipodi:namedview
     id="namedview4"
     pagecolor="#ffffff"
     bordercolor="#000000"
     borderopacity="0.25"
     inkscape:showpageshadow="2"
     inkscape:pageopacity="0.0"
     inkscape:pagecheckerboard="0"
     inkscape:deskcolor="#d1d1d1"
     showgrid="false"
     inkscape:zoom="1.0076756"
     inkscape:cx="489.74093"
     inkscape:cy="106.68115"
     inkscape:window-width="1920"
     inkscape:window-height="991"
     inkscape:window-x="-9"
     inkscape:window-y="-9"
     inkscape:window-maximized="1"
     inkscape:current-layer="g8" />
  <g
     id="g8"
     inkscape:groupmode="layer"
     inkscape:label="strategieplan-106"
     transform="matrix(10.742357,0,0,-10.742357,-2654.5696,8005.271)">
    <g
       id="g10">
      <g
         id="g12"
         clip-path="url(#clipPath16)">
        <g
           id="g18"
           transform="translate(260.9764,736.1852)">
          <path
             d="m 0,0 c 0.509,0.589 2.164,2.225 4.961,2.225 1.548,0 2.831,-0.762 3.528,-2.002 0.362,-0.646 0.566,-1.387 0.566,-2.43 v -2.62 H 6.351 v 2.466 c 0,0.545 -0.053,0.846 -0.154,1.115 -0.26,0.694 -0.841,0.993 -1.661,0.993 -1.239,0 -2.288,-0.873 -3.161,-1.69 -0.878,-0.821 -2.134,-2.126 -2.755,-2.829 -0.063,-0.072 -0.138,-0.1 -0.219,-0.075 -0.078,0.026 -0.105,0.086 -0.105,0.206 v 2.407 c 0,1.348 -0.716,1.981 -1.874,1.981 -1.382,0 -2.515,-1.088 -3.869,-2.414 -1.057,-1.035 -2.026,-2.072 -3.387,-3.498 -0.066,-0.07 -0.138,-0.1 -0.22,-0.074 -0.078,0.025 -0.105,0.085 -0.105,0.205 v 5.105 c 0,0.536 -0.259,0.898 -0.898,0.898 h -1.807 v 2.032 h 4.271 c 0.717,0 1.139,-0.407 1.139,-1.133 v -1.171 c 0,0 2.392,2.528 5.027,2.528 C -1.189,2.225 -0.297,0.873 0,0 m 17.629,2.225 c -4.458,0 -6.537,-3.848 -6.537,-6.293 0,-1.782 0.466,-2.817 0.954,-3.613 h 3.022 c -0.543,0.801 -1.265,1.972 -1.265,3.613 0,1.99 1.591,3.815 3.814,3.815 1.701,0 2.916,-1.126 3.616,-1.678 1.019,-0.804 2.641,-2.135 3.4,-2.816 0.071,-0.065 0.137,-0.102 0.219,-0.075 0.078,0.024 0.105,0.086 0.105,0.204 V 7.888 c 0,0.726 -0.422,1.133 -1.138,1.133 H 19.548 V 6.988 h 1.743 c 0.639,0 0.898,-0.361 0.898,-0.898 V 0.321 c -1.538,1.556 -3.236,1.904 -4.56,1.904 m 14.537,-2.528 v 1.171 c 0,0.726 -0.422,1.133 -1.138,1.133 h -4.271 v -2.032 h 1.806 c 0.64,0 0.899,-0.362 0.899,-0.898 v -5.123 c 0,-0.119 0.027,-0.18 0.104,-0.206 0.082,-0.025 0.154,0.006 0.221,0.076 0.604,0.634 2.02,2.151 2.94,3.046 2.086,2.028 3.741,2.883 5.187,2.883 v 2.478 c -1.834,0 -2.459,-0.27 -3.543,-0.846 -0.796,-0.423 -1.708,-1.182 -2.205,-1.682"
             style="fill:#0063af;fill-opacity:1;fill-rule:nonzero;stroke:none"
             id="path20"
             sodipodi:nodetypes="cscsccscscccssscccsssccsscsccsccsscccsssccsscccssccsssccccccc" />
        </g>
      </g>
    </g>
  </g>
</svg>
